<svg xmlns="http://www.w3.org/2000/svg" width="760" height="366" viewBox="0 0 760 366">
<rect width="100%" height="100%" fill="#ffffff"/>
<text x="20" y="30" font-family="Arial" font-size="20" font-weight="700">CIFAR-100 Architecture Comparison</text>
<text x="20" y="54" font-family="Arial" font-size="12" fill="#555">Final test accuracy (%)</text>
<text x="20" y="92" font-family="Arial" font-size="12">Res_v1_basic</text>
<rect x="190" y="78" width="490.0" height="14" fill="#2f6f73" rx="2"/>
<text x="688.0" y="90" font-family="Arial" font-size="12">45.23</text>
<text x="20" y="114" font-family="Arial" font-size="12">Inc_v2_double</text>
<rect x="190" y="100" width="457.8" height="14" fill="#7aa6a9" rx="2"/>
<text x="655.8" y="112" font-family="Arial" font-size="12">42.26</text>
<text x="20" y="136" font-family="Arial" font-size="12">Dep_v2_vggish</text>
<rect x="190" y="122" width="429.0" height="14" fill="#7aa6a9" rx="2"/>
<text x="627.0" y="134" font-family="Arial" font-size="12">39.60</text>
<text x="20" y="158" font-family="Arial" font-size="12">Filt_v2_ks5_3_more</text>
<rect x="190" y="144" width="427.4" height="14" fill="#7aa6a9" rx="2"/>
<text x="625.4" y="156" font-family="Arial" font-size="12">39.45</text>
<text x="20" y="180" font-family="Arial" font-size="12">Filt_v1_ks3_more</text>
<rect x="190" y="166" width="427.1" height="14" fill="#7aa6a9" rx="2"/>
<text x="625.1" y="178" font-family="Arial" font-size="12">39.42</text>
<text x="20" y="202" font-family="Arial" font-size="12">Res_v2_bottleneck</text>
<rect x="190" y="188" width="408.3" height="14" fill="#7aa6a9" rx="2"/>
<text x="606.3" y="200" font-family="Arial" font-size="12">37.69</text>
<text x="20" y="224" font-family="Arial" font-size="12">Norm_v1_BN</text>
<rect x="190" y="210" width="398.6" height="14" fill="#7aa6a9" rx="2"/>
<text x="596.6" y="222" font-family="Arial" font-size="12">36.79</text>
<text x="20" y="246" font-family="Arial" font-size="12">DA_v1_light</text>
<rect x="190" y="232" width="391.3" height="14" fill="#7aa6a9" rx="2"/>
<text x="589.3" y="244" font-family="Arial" font-size="12">36.12</text>
<text x="20" y="268" font-family="Arial" font-size="12">Base_exact</text>
<rect x="190" y="254" width="372.2" height="14" fill="#7aa6a9" rx="2"/>
<text x="570.2" y="266" font-family="Arial" font-size="12">34.36</text>
<text x="20" y="290" font-family="Arial" font-size="12">Reg_v2_DropL2</text>
<rect x="190" y="276" width="366.6" height="14" fill="#7aa6a9" rx="2"/>
<text x="564.6" y="288" font-family="Arial" font-size="12">33.84</text>
<text x="20" y="312" font-family="Arial" font-size="12">Dep_v1_add_block</text>
<rect x="190" y="298" width="364.1" height="14" fill="#7aa6a9" rx="2"/>
<text x="562.1" y="310" font-family="Arial" font-size="12">33.61</text>
<text x="20" y="334" font-family="Arial" font-size="12">Inc_v1_single</text>
<rect x="190" y="320" width="358.0" height="14" fill="#7aa6a9" rx="2"/>
<text x="556.0" y="332" font-family="Arial" font-size="12">33.05</text>
<text x="20" y="356" font-family="Arial" font-size="12">DA_v2_strong</text>
<rect x="190" y="342" width="330.2" height="14" fill="#7aa6a9" rx="2"/>
<text x="528.2" y="354" font-family="Arial" font-size="12">30.48</text>
</svg>